<svg width="800" height="400" viewBox="0 0 800 400" xmlns="http://www.w3.org/2000/svg">
  <!-- Background -->
  <rect width="800" height="400" fill="#f8f9fa"/>
  
  <!-- House Icon with AI Circuit -->
  <g transform="translate(290, 100)">
    <!-- House Base -->
    <path d="M60 80 L100 40 L140 80 L140 140 L60 140 Z" fill="#1e3a8a"/>
    <!-- Roof -->
    <path d="M50 80 L100 30 L150 80 L100 30 Z" fill="#0f172a"/>
    <!-- Windows -->
    <rect x="70" y="90" width="15" height="15" fill="white"/>
    <rect x="115" y="90" width="15" height="15" fill="white"/>
    <!-- Door -->
    <rect x="92" y="110" width="16" height="30" fill="white"/>
    
    <!-- AI Circuit Pattern -->
    <g stroke="#06b6d4" stroke-width="3" fill="none">
      <!-- Curved flowing lines -->
      <path d="M20 60 Q40 40, 80 50 T140 45 T180 60" stroke-width="4"/>
      <path d="M15 80 Q45 65, 85 75 T145 70 T185 85" stroke-width="4"/>
      <path d="M10 100 Q50 85, 90 95 T150 90 T190 105" stroke-width="4"/>
      <path d="M5 120 Q55 105, 95 115 T155 110 T195 125" stroke-width="4"/>
    </g>
    
    <!-- Circuit Nodes -->
    <g fill="#06b6d4">
      <circle cx="25" cy="60" r="4"/>
      <circle cx="65" cy="52" r="4"/>
      <circle cx="105" cy="48" r="4"/>
      <circle cx="145" cy="45" r="4"/>
      <circle cx="175" cy="58" r="4"/>
      
      <circle cx="20" cy="80" r="4"/>
      <circle cx="70" cy="72" r="4"/>
      <circle cx="110" cy="75" r="4"/>
      <circle cx="150" cy="70" r="4"/>
      <circle cx="180" cy="83" r="4"/>
      
      <circle cx="15" cy="100" r="4"/>
      <circle cx="75" cy="92" r="4"/>
      <circle cx="115" cy="95" r="4"/>
      <circle cx="155" cy="90" r="4"/>
      <circle cx="185" cy="103" r="4"/>
    </g>
    
    <!-- Upward Arrow -->
    <path d="M160 30 L190 60 L175 60 L175 80 L145 80 L145 60 L130 60 Z" fill="#06b6d4"/>
  </g>
  
  <!-- LeadFlow AI Text -->
  <g transform="translate(180, 280)">
    <!-- LEADFLOW -->
    <text x="0" y="0" font-family="Arial, sans-serif" font-size="60" font-weight="bold" fill="#1e3a8a">
      LEAD
    </text>
    <text x="180" y="0" font-family="Arial, sans-serif" font-size="60" font-weight="bold" fill="#06b6d4">
      Flow
    </text>
    
    <!-- AI Badge -->
    <rect x="420" y="-45" width="80" height="50" rx="25" fill="#06b6d4"/>
    <text x="460" y="-15" font-family="Arial, sans-serif" font-size="24" font-weight="bold" fill="white" text-anchor="middle">
      AI
    </text>
  </g>
</svg>